<svg width="16" height="19" viewBox="0 0 16 19" fill="none" xmlns="http://www.w3.org/2000/svg">
<path d="M15.1875 1.375H10.9688L10.6172 0.742188C10.4766 0.460938 10.1953 0.25 9.87891 0.25H5.83594C5.51953 0.25 5.23828 0.460938 5.09766 0.742188L4.78125 1.375H0.5625C0.246094 1.375 0 1.65625 0 1.9375V3.0625C0 3.37891 0.246094 3.625 0.5625 3.625H15.1875C15.4688 3.625 15.75 3.37891 15.75 3.0625V1.9375C15.75 1.65625 15.4688 1.375 15.1875 1.375ZM1.86328 16.668C1.89844 17.582 2.63672 18.25 3.55078 18.25H12.1641C13.0781 18.25 13.8164 17.582 13.8516 16.668L14.625 4.75H1.125L1.86328 16.668Z" fill="#BDBDBD"/>
</svg>
